# Blender v3.2.1 OBJ File: 'arvore.blend'
# www.blender.org
mtllib arvore.mtl
o Cone.001
v -0.190693 0.585319 -0.897139
v 0.373052 0.585319 -0.837888
v 0.794303 0.585319 -0.458591
v 0.912158 0.585319 0.095872
v 0.681599 0.585319 0.613715
v 0.190693 0.585319 0.897139
v -0.373052 0.585319 0.837888
v -0.794303 0.585319 0.458591
v -0.912158 0.585319 -0.095872
v -0.681599 0.585319 -0.613715
v 0.000000 2.935965 -0.000000
v 0.000000 -0.226094 -0.917182
v 0.539106 -0.226094 -0.742016
v 0.872292 -0.226094 -0.283425
v 0.872292 -0.226094 0.283425
v 0.539106 -0.226094 0.742016
v -0.000000 -0.226094 0.917182
v -0.539106 -0.226094 0.742016
v -0.872292 -0.226094 0.283425
v -0.872292 -0.226094 -0.283425
v -0.539106 -0.226094 -0.742016
v 0.000000 -0.986513 -0.341215
v 0.241276 -0.986513 -0.241276
v 0.341215 -0.986513 0.000000
v 0.241276 -0.986513 0.241276
v 0.000000 -0.986513 0.341215
v -0.241276 -0.986513 0.241276
v -0.341215 -0.986513 -0.000000
v -0.241276 -0.986513 -0.241276
v 0.000000 -0.305059 -0.194198
v 0.137319 -0.305059 -0.137319
v 0.194198 -0.305059 -0.000000
v 0.137319 -0.305059 0.137319
v 0.000000 -0.305059 0.194198
v -0.137319 -0.305059 0.137319
v -0.194198 -0.305059 -0.000000
v -0.137319 -0.305059 -0.137319
v 0.342442 0.481038 -0.471332
v 0.000000 0.481038 -0.582598
v 0.554083 0.481038 -0.180033
v 0.554083 0.481038 0.180033
v 0.342442 0.481038 0.471332
v 0.000000 0.481038 0.582598
v -0.342442 0.481038 0.471331
v -0.554084 0.481038 0.180033
v -0.554084 0.481038 -0.180033
v -0.342442 0.481038 -0.471331
v -0.212377 0.525964 -0.999153
v 0.415471 0.525964 -0.933164
v 0.884623 0.525964 -0.510737
v 1.015879 0.525964 0.106773
v 0.759104 0.525964 0.683500
v 0.212377 0.525964 0.999153
v -0.415471 0.525964 0.933164
v -0.884623 0.525964 0.510738
v -1.015879 0.525964 -0.106773
v -0.759104 0.525964 -0.683500
v 0.000000 3.055964 -0.000000
v 0.000000 -0.285449 -1.021475
v 0.600408 -0.285449 -0.826391
v 0.971480 -0.285449 -0.315653
v 0.971480 -0.285449 0.315653
v 0.600408 -0.285449 0.826391
v -0.000000 -0.285449 1.021475
v -0.600408 -0.285449 0.826390
v -0.971480 -0.285449 0.315653
v -0.971480 -0.285449 -0.315653
v -0.600408 -0.285449 -0.826390
v 0.000000 -1.054642 -0.440000
v 0.311127 -1.054642 -0.311127
v 0.440000 -1.054642 0.000000
v 0.311127 -1.054642 0.311127
v -0.000000 -1.054642 0.440000
v -0.311127 -1.054642 0.311127
v -0.440000 -1.054642 -0.000000
v -0.311127 -1.054642 -0.311127
v 0.000000 -0.285449 -0.312585
v 0.221031 -0.285449 -0.221031
v 0.312585 -0.285449 -0.000000
v 0.221031 -0.285449 0.221031
v 0.000000 -0.285449 0.312585
v -0.221031 -0.285449 0.221031
v -0.312585 -0.285449 -0.000000
v -0.221031 -0.285449 -0.221031
v 0.407847 0.525964 -0.561353
v 0.000000 0.525964 -0.693871
v 0.659910 0.525964 -0.214418
v 0.659910 0.525964 0.214418
v 0.407847 0.525964 0.561353
v -0.000000 0.525964 0.693871
v -0.407847 0.525964 0.561353
v -0.659910 0.525964 0.214418
v -0.659910 0.525964 -0.214418
v -0.407847 0.525964 -0.561353
vt 0.250000 0.490000
vt 0.250000 0.250000
vt 0.391068 0.444164
vt 0.478254 0.324164
vt 0.478254 0.175836
vt 0.391068 0.055836
vt 0.250000 0.010000
vt 0.108932 0.055836
vt 0.021746 0.175836
vt 0.021746 0.324164
vt 0.750000 0.490000
vt 0.891068 0.444164
vt 0.978254 0.324164
vt 0.978254 0.175836
vt 0.891068 0.055836
vt 0.750000 0.010000
vt 0.608932 0.055836
vt 0.521746 0.175836
vt 0.521746 0.324164
vt 0.608932 0.444164
vt 0.108932 0.444164
vt 0.391068 0.444164
vt 0.250000 0.490000
vt 0.250000 0.413028
vt 0.345825 0.381892
vt 0.478254 0.324164
vt 0.405049 0.300378
vt 0.405049 0.199622
vt 0.478254 0.175836
vt 0.345825 0.118108
vt 0.391068 0.055836
vt 0.250000 0.086972
vt 0.250000 0.010000
vt 0.154175 0.118108
vt 0.108932 0.055836
vt 0.021746 0.175836
vt 0.094951 0.199622
vt 0.021746 0.324164
vt 0.094951 0.300378
vt 0.608932 0.444164
vt 0.750000 0.490000
vt 0.891068 0.444164
vt 0.978254 0.324164
vt 0.978254 0.175836
vt 0.891068 0.055836
vt 0.750000 0.010000
vt 0.608932 0.055836
vt 0.521746 0.175836
vt 0.521746 0.324164
vt 0.108932 0.444164
vt 0.154175 0.381892
vt 0.875000 0.500000
vt 1.000000 0.500000
vt 1.000000 0.837366
vt 0.875000 0.837366
vt 0.750000 0.837366
vt 0.750000 0.500000
vt 0.625000 0.837366
vt 0.625000 0.500000
vt 0.500000 0.837366
vt 0.500000 0.500000
vt 0.375000 0.837366
vt 0.375000 0.500000
vt 0.250000 0.500000
vt 0.250000 0.837366
vt 0.125000 0.500000
vt 0.125000 0.837366
vt 0.000000 0.500000
vt 0.000000 0.837366
vt 0.510000 0.250000
vt 0.580294 0.419706
vt 0.750000 0.490000
vt 0.919706 0.419706
vt 0.990000 0.250000
vt 0.919706 0.080294
vt 0.750000 0.010000
vt 0.580294 0.080294
vt 0.154175 0.381892
vt 0.250000 0.413028
vt 0.875000 0.837366
vt 0.750000 0.837366
vt 0.625000 0.837366
vt 0.500000 0.837366
vt 0.405049 0.300378
vt 0.405049 0.199622
vt 0.345825 0.118108
vt 0.250000 0.086972
vt 0.154175 0.118108
vt 0.375000 0.837366
vt 0.094951 0.199622
vt 0.250000 0.837366
vt 0.094951 0.300378
vt 0.125000 0.837366
vt 0.000000 0.837366
vt 0.345825 0.381892
vt 1.000000 0.837366
vt 0.250000 0.490000
vt 0.391068 0.444164
vt 0.250000 0.250000
vt 0.478254 0.324164
vt 0.478254 0.175836
vt 0.391068 0.055836
vt 0.250000 0.010000
vt 0.108932 0.055836
vt 0.021746 0.175836
vt 0.021746 0.324164
vt 0.750000 0.490000
vt 0.608932 0.444164
vt 0.521746 0.324164
vt 0.521746 0.175836
vt 0.608932 0.055836
vt 0.750000 0.010000
vt 0.891068 0.055836
vt 0.978254 0.175836
vt 0.978254 0.324164
vt 0.891068 0.444164
vt 0.108932 0.444164
vt 0.391068 0.444164
vt 0.250000 0.490000
vt 0.478254 0.324164
vt 0.478254 0.175836
vt 0.391068 0.055836
vt 0.250000 0.010000
vt 0.108932 0.055836
vt 0.021746 0.175836
vt 0.021746 0.324164
vt 0.608932 0.444164
vt 0.521746 0.324164
vt 0.521746 0.175836
vt 0.608932 0.055836
vt 0.750000 0.010000
vt 0.891068 0.055836
vt 0.978254 0.175836
vt 0.978254 0.324164
vt 0.891068 0.444164
vt 0.750000 0.490000
vt 0.108932 0.444164
vt 0.875000 0.500000
vt 1.000000 0.500000
vt 0.750000 0.500000
vt 0.625000 0.500000
vt 0.500000 0.500000
vt 0.375000 0.500000
vt 0.250000 0.500000
vt 0.125000 0.500000
vt 0.000000 0.500000
vt 0.510000 0.250000
vt 0.580294 0.080294
vt 0.750000 0.010000
vt 0.919706 0.080294
vt 0.990000 0.250000
vt 0.919706 0.419706
vt 0.750000 0.490000
vt 0.580294 0.419706
vn 0.0980 0.3479 -0.9324
vn 0.6273 0.3479 -0.6967
vn 0.9170 0.3479 -0.1949
vn 0.8565 0.3479 0.3813
vn 0.4688 0.3479 0.8119
vn -0.0980 0.3479 0.9324
vn -0.6273 0.3479 0.6967
vn -0.9170 0.3479 0.1949
vn 0.0000 -1.0000 -0.0000
vn -0.8565 0.3479 -0.3813
vn -0.4688 0.3479 -0.8119
vn 0.2818 0.4104 -0.8673
vn 0.7378 0.4104 -0.5360
vn 0.9119 0.4104 0.0000
vn 0.7378 0.4104 0.5360
vn 0.2818 0.4104 0.8673
vn -0.2818 0.4104 0.8673
vn -0.7378 0.4104 0.5360
vn -0.9119 0.4104 0.0000
vn -0.7378 0.4104 -0.5360
vn -0.2818 0.4104 -0.8673
vn 0.3753 0.1955 -0.9061
vn 0.9061 0.1955 -0.3753
vn 0.9061 0.1955 0.3753
vn 0.3753 0.1955 0.9061
vn -0.3753 0.1955 0.9061
vn -0.9061 0.1955 0.3753
vn -0.9061 0.1955 -0.3753
vn -0.3753 0.1955 -0.9061
vn -0.1208 -0.9205 -0.3716
vn 0.1630 -0.9843 -0.0675
vn 0.1630 -0.9843 0.0675
vn 0.0675 -0.9843 0.1630
vn 0.3908 -0.9205 0.0000
vn 0.3161 -0.9205 0.2297
vn 0.1208 -0.9205 0.3716
vn -0.1208 -0.9205 0.3716
vn -0.0675 -0.9843 0.1630
vn -0.3161 -0.9205 0.2297
vn -0.1630 -0.9843 0.0675
vn -0.3908 -0.9205 0.0000
vn -0.1630 -0.9843 -0.0675
vn -0.3161 -0.9205 -0.2297
vn -0.0675 -0.9843 -0.1630
vn 0.1208 -0.9205 -0.3716
vn 0.3161 -0.9205 -0.2297
vn 0.0675 -0.9843 -0.1630
vn -0.0976 -0.3585 0.9284
vn -0.6247 -0.3585 0.6938
vn -0.9131 -0.3585 0.1941
vn -0.8528 -0.3585 -0.3797
vn -0.4668 -0.3585 -0.8085
vn 0.0976 -0.3585 -0.9284
vn 0.6247 -0.3585 -0.6938
vn 0.9131 -0.3585 -0.1941
vn 0.0000 1.0000 -0.0000
vn 0.8528 -0.3585 0.3797
vn 0.4668 -0.3585 0.8085
vn -0.2885 -0.3585 0.8879
vn -0.7553 -0.3585 0.5487
vn -0.9335 -0.3585 0.0000
vn -0.7553 -0.3585 -0.5487
vn -0.2885 -0.3585 -0.8879
vn 0.2885 -0.3585 -0.8879
vn 0.7553 -0.3585 -0.5487
vn 0.9335 -0.3585 -0.0000
vn 0.7553 -0.3585 0.5487
vn 0.2885 -0.3585 0.8879
vn -0.3783 -0.1513 0.9132
vn -0.9132 -0.1513 0.3783
vn -0.9132 -0.1513 -0.3783
vn -0.3783 -0.1513 -0.9132
vn 0.3783 -0.1513 -0.9132
vn 0.9132 -0.1513 -0.3783
vn 0.9132 -0.1513 0.3783
vn 0.3783 -0.1513 0.9132
usemtl Material.001
s off
f 1/1/1 11/2/1 2/3/1
f 2/3/2 11/2/2 3/4/2
f 3/4/3 11/2/3 4/5/3
f 4/5/4 11/2/4 5/6/4
f 5/6/5 11/2/5 6/7/5
f 6/7/6 11/2/6 7/8/6
f 7/8/7 11/2/7 8/9/7
f 8/9/8 11/2/8 9/10/8
f 1/11/9 2/12/9 3/13/9 4/14/9 5/15/9 6/16/9 7/17/9 8/18/9 9/19/9 10/20/9
f 9/10/10 11/2/10 10/21/10
f 10/21/11 11/2/11 1/1/11
f 13/22/12 12/23/12 39/24/12 38/25/12
f 14/26/13 13/22/13 38/25/13 40/27/13
f 41/28/14 15/29/14 14/26/14 40/27/14
f 42/30/15 16/31/15 15/29/15 41/28/15
f 43/32/16 17/33/16 16/31/16 42/30/16
f 44/34/17 18/35/17 17/33/17 43/32/17
f 19/36/18 18/35/18 44/34/18 45/37/18
f 20/38/19 19/36/19 45/37/19 46/39/19
f 21/40/9 12/41/9 13/42/9 14/43/9 15/44/9 16/45/9 17/46/9 18/47/9 19/48/9 20/49/9
f 21/50/20 20/38/20 46/39/20 47/51/20
f 12/23/21 21/50/21 47/51/21 39/24/21
f 23/52/22 22/53/22 30/54/22 31/55/22
f 32/56/23 24/57/23 23/52/23 31/55/23
f 33/58/24 25/59/24 24/57/24 32/56/24
f 34/60/25 26/61/25 25/59/25 33/58/25
f 35/62/26 27/63/26 26/61/26 34/60/26
f 28/64/27 27/63/27 35/62/27 36/65/27
f 29/66/28 28/64/28 36/65/28 37/67/28
f 22/68/29 29/66/29 37/67/29 30/69/29
f 28/70/9 29/71/9 22/72/9 23/73/9 24/74/9 25/75/9 26/76/9 27/77/9
f 39/24/30 47/51/30 94/78/30 86/79/30
f 32/56/31 31/55/31 78/80/31 79/81/31
f 33/58/32 32/56/32 79/81/32 80/82/32
f 34/60/33 33/58/33 80/82/33 81/83/33
f 41/28/34 40/27/34 87/84/34 88/85/34
f 42/30/35 41/28/35 88/85/35 89/86/35
f 43/32/36 42/30/36 89/86/36 90/87/36
f 44/34/37 43/32/37 90/87/37 91/88/37
f 35/62/38 34/60/38 81/83/38 82/89/38
f 45/37/39 44/34/39 91/88/39 92/90/39
f 36/65/40 35/62/40 82/89/40 83/91/40
f 46/39/41 45/37/41 92/90/41 93/92/41
f 37/67/42 36/65/42 83/91/42 84/93/42
f 47/51/43 46/39/43 93/92/43 94/78/43
f 30/69/44 37/67/44 84/93/44 77/94/44
f 38/25/45 39/24/45 86/79/45 85/95/45
f 40/27/46 38/25/46 85/95/46 87/84/46
f 31/55/47 30/54/47 77/96/47 78/80/47
usemtl Outline
f 48/97/48 49/98/48 58/99/48
f 49/98/49 50/100/49 58/99/49
f 50/100/50 51/101/50 58/99/50
f 51/101/51 52/102/51 58/99/51
f 52/102/52 53/103/52 58/99/52
f 53/103/53 54/104/53 58/99/53
f 54/104/54 55/105/54 58/99/54
f 55/105/55 56/106/55 58/99/55
f 48/107/56 57/108/56 56/109/56 55/110/56 54/111/56 53/112/56 52/113/56 51/114/56 50/115/56 49/116/56
f 56/106/57 57/117/57 58/99/57
f 57/117/58 48/97/58 58/99/58
f 60/118/59 85/95/59 86/79/59 59/119/59
f 61/120/60 87/84/60 85/95/60 60/118/60
f 88/85/61 87/84/61 61/120/61 62/121/61
f 89/86/62 88/85/62 62/121/62 63/122/62
f 90/87/63 89/86/63 63/122/63 64/123/63
f 91/88/64 90/87/64 64/123/64 65/124/64
f 66/125/65 92/90/65 91/88/65 65/124/65
f 67/126/66 93/92/66 92/90/66 66/125/66
f 68/127/56 67/128/56 66/129/56 65/130/56 64/131/56 63/132/56 62/133/56 61/134/56 60/135/56 59/136/56
f 68/137/67 94/78/67 93/92/67 67/126/67
f 59/119/68 86/79/68 94/78/68 68/137/68
f 70/138/69 78/80/69 77/96/69 69/139/69
f 79/81/70 78/80/70 70/138/70 71/140/70
f 80/82/71 79/81/71 71/140/71 72/141/71
f 81/83/72 80/82/72 72/141/72 73/142/72
f 82/89/73 81/83/73 73/142/73 74/143/73
f 75/144/74 83/91/74 82/89/74 74/143/74
f 76/145/75 84/93/75 83/91/75 75/144/75
f 69/146/76 77/94/76 84/93/76 76/145/76
f 75/147/56 74/148/56 73/149/56 72/150/56 71/151/56 70/152/56 69/153/56 76/154/56
